<svg height="512" viewBox="0 0 192 192" width="512" xmlns="http://www.w3.org/2000/svg"><g id="_17-automation" data-name="17-automation"><path d="m123.556 63.758 6.385-6.385-11.314-11.314-6.385 6.385a31.826 31.826 0 0 0 -8.242-3.431v-9.013h-16v9.013a31.826 31.826 0 0 0 -8.242 3.431l-6.385-6.385-11.314 11.314 6.385 6.385a31.826 31.826 0 0 0 -3.431 8.242h-9.013v16h9.013a31.826 31.826 0 0 0 3.431 8.242l-6.385 6.385 11.314 11.314 6.385-6.385a31.826 31.826 0 0 0 8.242 3.431v9.013h16v-9.013a31.826 31.826 0 0 0 8.242-3.431l6.385 6.385 11.314-11.314-6.385-6.385a31.826 31.826 0 0 0 3.431-8.242h9.013v-16h-9.013a31.826 31.826 0 0 0 -3.431-8.242zm-27.556 32.242a16 16 0 1 1 16-16 16.019 16.019 0 0 1 -16 16z"/><path d="m184 128h-8v-104a8 8 0 0 0 -8-8h-144a8 8 0 0 0 -8 8v104h-8a8 8 0 0 0 -8 8v8a24.028 24.028 0 0 0 24 24h144a24.028 24.028 0 0 0 24-24v-8a8 8 0 0 0 -8-8zm-152-96h128v96h-128zm136 120h-144a8.009 8.009 0 0 1 -8-8h160a8.009 8.009 0 0 1 -8 8z"/></g></svg>