<svg height="512pt" viewBox="0 0 512 512" width="512pt" xmlns="http://www.w3.org/2000/svg"><path d="m219.945312 0-15.453124 72.113281h103.015624l-15.453124-72.113281zm0 0" fill="#a3bbc0"/><path d="m462.515625 100.476562-50.992187-50.992187-61.917969 40.066406 72.84375 72.84375zm0 0" fill="#728287"/><path d="m439.886719 204.492188v103.015624l72.113281-15.453124v-72.109376zm0 0" fill="#728287"/><path d="m349.605469 422.449219 61.917969 40.066406 50.992187-50.992187-40.066406-61.917969zm0 0" fill="#728287"/><g fill="#a3bbc0"><path d="m219.945312 512h72.109376l15.453124-72.113281h-103.015624zm0 0"/><path d="m49.484375 411.523438 50.992187 50.992187 61.917969-40.066406-72.84375-72.84375zm0 0"/><path d="m72.113281 204.492188-72.113281 15.453124v72.109376l72.113281 15.453124zm0 0"/><path d="m49.484375 100.476562 40.066406 61.917969 72.84375-72.84375-61.917969-40.066406zm0 0"/></g><path d="m256 44.8125c-116.449219 0-211.1875 94.746094-211.1875 211.1875 0 116.449219 94.738281 211.1875 211.1875 211.1875 116.453125 0 211.1875-94.738281 211.1875-211.1875 0-116.441406-94.734375-211.1875-211.1875-211.1875zm0 0" fill="#8b9ea4"/><path d="m256 420.828125c-90.886719 0-164.828125-73.941406-164.828125-164.828125s73.941406-164.828125 164.828125-164.828125 164.828125 73.941406 164.828125 164.828125-73.941406 164.828125-164.828125 164.828125zm0 0" fill="#5a656b"/><path d="m257.40625 122.085938v267.832031c73.199219-.761719 132.519531-60.542969 132.519531-133.917969 0-73.371094-59.320312-133.152344-132.519531-133.914062zm0 0" fill="#d6faff"/><path d="m257.40625 122.085938c-.46875-.007813-.9375-.007813-1.40625-.007813-73.839844 0-133.921875 60.082031-133.921875 133.921875 0 73.84375 60.082031 133.925781 133.921875 133.925781.46875 0 .9375 0 1.40625-.007812 56.152344-.929688 101.613281-60.652344 101.613281-133.917969 0-73.261719-45.460937-132.984375-101.613281-133.914062zm0 0" fill="#fff"/><path d="m340.476562 197.28125-84.476562 19.722656-84.476562-19.722656v117.4375l84.476562-19.722656 84.476562 19.722656zm0 0" fill="#ffebbe"/><path d="m273.410156 256h-34.820312l-67.066406 58.71875h168.953124zm0 0" fill="#ffc43b"/><path d="m171.523438 197.28125 84.476562 73.957031 84.476562-73.957031zm0 0" fill="#ffd87c"/></svg>